<?xml version="1.0" encoding="UTF-8" standalone="no"?>
<!-- Created with Inkscape (http://www.inkscape.org/) -->

<svg
   width="38.938137mm"
   height="44.483955mm"
   viewBox="0 0 38.938137 44.483955"
   version="1.1"
   id="svg1"
   inkscape:version="1.3.2 (091e20e, 2023-11-25, custom)"
   sodipodi:docname="logo-brainstorming.svg"
   xmlns:inkscape="http://www.inkscape.org/namespaces/inkscape"
   xmlns:sodipodi="http://sodipodi.sourceforge.net/DTD/sodipodi-0.dtd"
   xmlns="http://www.w3.org/2000/svg"
   xmlns:svg="http://www.w3.org/2000/svg">
  <sodipodi:namedview
     id="namedview1"
     pagecolor="#505050"
     bordercolor="#eeeeee"
     borderopacity="1"
     inkscape:showpageshadow="0"
     inkscape:pageopacity="0"
     inkscape:pagecheckerboard="0"
     inkscape:deskcolor="#505050"
     inkscape:document-units="mm"
     inkscape:zoom="1.4912879"
     inkscape:cx="277.27711"
     inkscape:cy="49.95682"
     inkscape:window-width="1920"
     inkscape:window-height="1051"
     inkscape:window-x="-9"
     inkscape:window-y="-9"
     inkscape:window-maximized="1"
     inkscape:current-layer="layer1" />
  <defs
     id="defs1" />
  <g
     inkscape:label="Layer 1"
     inkscape:groupmode="layer"
     id="layer1"
     transform="translate(-4.9132434,-44.623721)">
    <path
       id="path9"
       style="opacity:1;fill:#daa507;fill-opacity:1;stroke:#000000;stroke-width:2;stroke-linecap:round;stroke-linejoin:round;stroke-dasharray:none;paint-order:stroke fill markers"
       d="m 23.595555,1.4626243 -10.921767,6.3177 0.562341,29.9402797 3.139207,2.04052 -0.209286,-16.06234 3.348607,0.52331 0.156859,17.0564 4.028727,2.56373 z m -4.133265,6.27852 0.104585,11.5105197 -3.662363,0.10453 -0.366243,-9.6791697 z"
       sodipodi:nodetypes="cccccccccccccc" />
    <path
       style="opacity:0.7;fill:#daa507;fill-opacity:1;stroke:#000000;stroke-width:2;stroke-linecap:round;stroke-linejoin:round;stroke-dasharray:none;stroke-opacity:1;paint-order:stroke fill markers"
       d="m 23.80488,1.4103743 0.05232,42.4840997 3.086899,-1.93585 0.313922,-17.00411 1.93585,1.15105 -0.2616,14.64969 3.19154,-1.67425 0.15696,-15.48681 -3.81938,-2.72066 3.76706,-2.45905 0.20928,-11.9290397 -2.92994,-1.83121 -0.10464,10.9349497 -2.406732,1.0464 V 3.0846243 Z"
       id="path10"
       sodipodi:nodetypes="cccccccccccccccc" />
    <g
       id="g1"
       inkscape:export-filename="LOGO.png"
       inkscape:export-xdpi="96"
       inkscape:export-ydpi="96">
      <path
         sodipodi:type="star"
         style="opacity:0.585308;fill:#8ec7d2;fill-opacity:1;stroke-width:2.11667;stroke-linecap:round;stroke-linejoin:round;paint-order:stroke fill markers"
         id="path12-8-8"
         inkscape:flatsided="true"
         sodipodi:sides="6"
         sodipodi:cx="65.467743"
         sodipodi:cy="87.1129"
         sodipodi:r1="72.20771"
         sodipodi:r2="62.533714"
         sodipodi:arg1="0.52359878"
         sodipodi:arg2="1.0471976"
         inkscape:rounded="0"
         inkscape:randomized="0"
         d="M 128.00145,123.21676 65.467743,159.32061 2.9340313,123.21675 2.9340316,51.009044 65.467743,14.90519 128.00145,51.009045 Z"
         inkscape:transform-center-y="-4.5468505e-06"
         transform="matrix(0.29489635,0,0,0.29489635,5.0761126,41.124107)" />
      <path
         style="opacity:0.348291;fill:#d4e9fe;stroke-width:0.624198;stroke-linecap:round;stroke-linejoin:round;paint-order:stroke fill markers"
         d="m 26.998333,53.210107 -0.62785,33.27572"
         id="path7-8-4" />
      <path
         style="fill:#1d232a;fill-opacity:1;stroke:#8ec7d2;stroke-width:2;stroke-linecap:round;stroke-linejoin:round;stroke-dasharray:none;stroke-opacity:1;paint-order:stroke fill markers"
         d="m 5.9132426,56.192367 2.35441,-1.15105 0.15696,7.79573 1.9881704,-0.10465 c 0,0 -0.37406,-8.51509 -0.14388,-9.05141 0.1925,-0.4485 2.74522,-1.96742 2.79914,-1.51729 0.0734,0.61272 0.327,29.56098 0.327,29.56098 l -2.8253,-1.62193 -0.36624,-12.76616 -1.6219304,-0.31392 0.10464,11.92903 -2.56369,-1.41264 z"
         id="path8-7-3"
         sodipodi:nodetypes="ccccssccccccc" />
      <path
         id="path9-03-2"
         style="fill:#1d232a;fill-opacity:1;stroke:#8ec7d2;stroke-width:2;stroke-linecap:round;stroke-linejoin:round;stroke-dasharray:none;stroke-opacity:1;paint-order:stroke fill markers"
         d="m 24.225303,45.675907 -10.92176,6.3177 0.56234,29.94028 3.13921,2.04052 -0.20929,-16.06234 3.34861,0.52331 0.15686,17.0564 4.02872,2.56373 z m -4.13326,6.27852 0.10458,11.51052 -3.66236,0.10453 -0.36624,-9.67917 z"
         sodipodi:nodetypes="cccccccccccccc" />
      <path
         style="opacity:0.7;fill:#1d232a;fill-opacity:1;stroke:#8ec7d2;stroke-width:2;stroke-linecap:round;stroke-linejoin:round;stroke-dasharray:none;stroke-opacity:1;paint-order:stroke fill markers"
         d="m 24.434633,45.623657 0.0523,42.4841 3.0869,-1.93585 0.31392,-17.00411 1.93585,1.15105 -0.2616,14.64969 3.19154,-1.67425 0.15696,-15.48681 -3.81938,-2.72066 3.76706,-2.45905 0.20928,-11.92904 -2.92994,-1.83121 -0.10464,10.93495 -2.40673,1.0464 v -13.55096 z"
         id="path10-2-1"
         sodipodi:nodetypes="cccccccccccccccc" />
      <path
         style="opacity:0.7;fill:#1d232a;fill-opacity:1;stroke:#8ec7d2;stroke-width:2;stroke-linecap:round;stroke-linejoin:round;stroke-dasharray:none;stroke-opacity:1;paint-order:stroke fill markers"
         d="m 33.643003,51.012647 -0.15696,15.48682 6.12148,-0.0523 v 12.8708 l 3.0869,-1.77889 0.15696,-21.24205 -3.13922,-1.77889 -0.20928,9.15605 -3.13922,-0.0523 0.15696,-10.98727 z"
         id="path11-6-4"
         sodipodi:nodetypes="ccccccccccc" />
    </g>
  </g>
</svg>
